<?xml version="1.0" standalone="no"?>
<svg version="1.0" xmlns="http://www.w3.org/2000/svg"
     width="100px" height="100px" viewBox="0 0 500.000000 500.000000"
     preserveAspectRatio="xMidYMid meet">
    <g transform="translate(0.000000,500.000000) scale(0.100000,-0.100000)"
       fill="#000" stroke="none">
        <path d="M2255 4473 c-348 -30 -683 -146 -965 -333 -281 -186 -474 -387 -643
        -667 -123 -205 -207 -428 -259 -688 -31 -151 -33 -517 -4 -670 50 -269 160
        -557 281 -740 23 -33 53 -80 67 -105 15 -25 48 -69 75 -97 l48 -53 77 10 c144
        17 182 57 223 238 15 64 43 165 62 224 l34 108 77 -7 c42 -3 79 -7 81 -9 1 -1
        -8 -38 -22 -81 -48 -147 -87 -300 -87 -337 0 -41 12 -69 43 -103 19 -21 30
        -23 119 -23 l98 0 0 -75 0 -75 -301 0 -301 0 88 -76 c381 -324 805 -491 1299
        -511 490 -19 969 135 1357 437 106 82 316 293 366 368 21 31 65 95 97 142 116
        170 239 471 285 699 22 107 40 347 34 442 -2 30 -5 96 -8 147 -20 332 -188
        751 -421 1049 l-66 84 -82 -77 c-103 -96 -120 -104 -150 -77 -12 12 -40 30
        -62 41 -69 37 -69 34 -22 83 56 59 87 125 87 188 0 43 -4 52 -37 84 -133 127
        -436 292 -679 370 -244 78 -538 112 -789 90z m633 -594 c3 -25 0 -27 -55 -34
        -92 -11 -182 -34 -261 -67 -71 -29 -73 -30 -119 -14 -34 12 -85 16 -187 16
        -122 0 -145 -3 -173 -20 -45 -27 -50 -67 -23 -166 12 -44 115 -356 227 -694
        277 -828 258 -776 266 -756 10 24 9 1286 0 1286 -17 0 -65 -93 -72 -137 -9
        -67 5 -160 34 -215 13 -27 20 -48 15 -48 -21 0 -142 156 -177 227 -34 70 -38
        86 -38 158 0 142 56 225 200 296 199 97 507 124 775 67 251 -53 513 -218 640
        -403 154 -224 206 -537 140 -835 -37 -170 -95 -292 -202 -429 -71 -90 -79 -97
        -196 -184 -197 -146 -378 -207 -724 -242 l-68 -7 0 -161 c-1 -123 -3 -157 -12
        -143 -14 24 -138 392 -138 410 0 10 26 15 98 20 145 10 305 54 442 123 102 51
        125 68 210 153 53 52 110 120 127 150 143 251 181 570 102 842 -65 225 -173
        373 -350 480 -113 68 -285 107 -416 93 l-63 -7 0 -892 0 -893 -52 -7 c-74 -8
        -530 -7 -545 2 -6 4 -32 72 -57 152 -103 325 -238 762 -312 1008 -27 89 -50
        159 -51 155 -1 -5 -19 -62 -39 -128 -20 -66 -43 -145 -51 -175 -8 -30 -58
        -192 -113 -360 -54 -168 -110 -344 -124 -392 -15 -48 -30 -90 -35 -93 -14 -8
        -67 41 -85 79 -21 44 -21 86 -1 86 12 0 13 4 5 19 -12 24 -13 34 -1 27 5 -4 7
        3 4 13 -4 17 70 281 97 349 5 12 18 57 29 100 19 71 141 455 261 817 28 83 50
        158 50 167 0 22 -46 75 -81 93 -15 8 -50 15 -77 15 l-48 0 6 53 c3 28 9 58 13
        65 7 10 134 12 605 10 l597 -3 3 -26z m-1511 -1471 c-29 -132 -47 -226 -47
        -254 0 -42 28 -100 67 -135 83 -78 324 -159 578 -194 94 -13 487 -34 651 -35
        l52 0 42 -117 c23 -65 70 -204 106 -310 60 -180 64 -198 64 -283 l0 -90 -400
        0 -400 0 0 75 0 75 153 0 c167 0 183 5 212 60 20 40 19 98 -4 156 -11 27 -39
        110 -63 184 l-43 135 -195 7 c-107 3 -271 13 -365 22 -93 9 -219 20 -280 26
        -292 27 -339 42 -392 121 -21 32 -27 52 -27 102 -1 86 49 182 159 307 46 52
        94 112 106 133 26 42 34 47 26 15z"/>
    </g>
</svg>